<svg id="Calque_1" data-name="Calque 1" xmlns="http://www.w3.org/2000/svg" viewBox="0 0 217.88 213.45"><defs><style>.cls-1{fill:#75a0d4;}.cls-2{fill:#bb4f4f;}.cls-3{fill:#dadada;}.cls-4{fill:#b2b9d3;}.cls-5{fill:#d64d4d;}.cls-6{fill:#d83130;}.cls-7{fill:#7eaad9;}.cls-8{fill:#d37e7e;}</style></defs><title>F-logosvg</title><ellipse id="_Ellipse_" data-name="&lt;Ellipse&gt;" class="cls-1" cx="107.31" cy="107.78" rx="105.52" ry="104.5"/><rect class="cls-2" x="76.05" y="40.61" width="37.27" height="134.66" rx="12" ry="12"/><path class="cls-2" d="M305,279.7H265.62c-1.24,0-4,.47-5.15.1-4.88-1.59-6.85-7.05-6.85-12.66v-3.08c0-6.9-9.45-14.71-2.85-14.71l54.35.32c7.78,0,11.83,7.49,11.83,14.39v3.08C317,274.05,311.55,279.7,305,279.7Z" transform="translate(-147.77 -208.67)"/><rect class="cls-2" x="107.31" y="98.25" width="38.45" height="28.28" rx="11.76" ry="11.76"/><path class="cls-3" d="M363.24,358.34a.39.39,0,0,0,.08-.2l-.09.21Z" transform="translate(-147.77 -208.67)"/><path class="cls-4" d="M286.34,280.25c.12-.15.25-.28.37-.42h-6c.07,1.2.15,2.43.15,3.65A18,18,0,0,1,286.34,280.25Z" transform="translate(-147.77 -208.67)"/><path class="cls-4" d="M270.36,280.71c.58-.18.83.72.25.91-2.72.87-5.3.71-8.1.55a8.26,8.26,0,0,0-1.42,0v3.32c.8.62,1.57,1.27,2.39,1.85,1.55,1.1,2.43,1,2.8-1.1.11-.6,1-.36.91.25-.48,2.7-2.11,3.21-4.18,1.67-.61-.45-1.26-1-1.92-1.49V303a6.83,6.83,0,0,0,6.32,1.07c4.38-1.49,7-6.22,9.12-10.16,1.22-2.23,2.7-4.48,3.19-7a4.81,4.81,0,0,0-.27.73.44.44,0,0,1-.85-.24,7.8,7.8,0,0,1,1.22-2.67v-4.85H261.09V280C264,279.63,267.07,281.68,270.36,280.71Z" transform="translate(-147.77 -208.67)"/><path class="cls-4" d="M263.12,358a5.09,5.09,0,0,1-2-1.11v1a22.89,22.89,0,0,1,4.61,3.57l-.06-.27a7.32,7.32,0,0,1-.66-1.47,12.83,12.83,0,0,0-1.47-1.85A.37.37,0,0,1,263.12,358Z" transform="translate(-147.77 -208.67)"/><path class="cls-4" d="M288.18,285.44c.74-.14,1.48-.26,2.23-.38a27,27,0,0,1,1.17-5.23h-1a11,11,0,0,0-2.22,4.73C288.27,284.85,288.23,285.15,288.18,285.44Z" transform="translate(-147.77 -208.67)"/><path class="cls-3" d="M288.08,281.74c0-.08.05-.16.08-.24l-.17.12A.47.47,0,0,1,288.08,281.74Z" transform="translate(-147.77 -208.67)"/><path class="cls-4" d="M280.81,285a13.9,13.9,0,0,1-.16,1.43v.09a11,11,0,0,1,5.2-4.35l.35-.28C284.16,282.7,282.16,283.48,280.81,285Z" transform="translate(-147.77 -208.67)"/><path class="cls-4" d="M287.91,282.33c-.41.24-.8.49-1.2.74l-.58.86c-.48.71-1.09,1.53-1.62,2.4a27,27,0,0,1,2.68-.69,15.82,15.82,0,0,1,.52-2.46C287.77,282.9,287.83,282.61,287.91,282.33Z" transform="translate(-147.77 -208.67)"/><path class="cls-4" d="M287.73,288.33a.5.5,0,0,0,0,.12l-.09.41c-.08.38-.17.75-.27,1.13.71,0,1.41-.07,2.11-.07a24.47,24.47,0,0,0,.69-3.19c-.79.34-1.57.68-2.33,1Z" transform="translate(-147.77 -208.67)"/><path class="cls-4" d="M260.79,249.27l12.35.4c-.12-.51-.25-.44-.59-.82a10.26,10.26,0,0,0-3.09-1.56c-.35,0-.7-.06-1.06-.09.16.28,0,.71-.36.67-3.86-.36-8-1.38-11.84-.62a16.78,16.78,0,0,0-5.43,2.1" transform="translate(-147.77 -208.67)"/><path class="cls-4" d="M222,317.56a8.49,8.49,0,0,0-1.18.66c-1,1.16-1.79,2.43-2.8,3.55-.27.31-.92,0-.74-.43a8.25,8.25,0,0,1,2.63-3.51v0a15.54,15.54,0,0,0-5.08,1.12,15.31,15.31,0,0,0-1.57,1.27c-.34.32-1-.11-.7-.54l.08-.08h0s.05,0,.07-.06a5.05,5.05,0,0,1,1.34-1.1,16.81,16.81,0,0,1,9.49-3.19c.13,0,.27,0,.4-.06v-.73a18.19,18.19,0,0,0-2.45.1,4.12,4.12,0,0,1-.15.55c-.17.53-1,.32-.83-.22a1.62,1.62,0,0,0,0-.19,13.74,13.74,0,0,0-2.47.68.46.46,0,0,1-.56-.56c.66-1.8,1.65-2.59,2.83-2.79a3.81,3.81,0,0,0-.41-.58,10.51,10.51,0,0,0-3.09-1.56c-.35,0-.71-.06-1.06-.09.15.28,0,.71-.36.67-3.87-.36-8-1.38-11.85-.62a16.42,16.42,0,0,0-10.28,6.58,18.23,18.23,0,0,0-3.21,8.89.37.37,0,0,1,0,.15,32.25,32.25,0,0,0,.49,4.5c1.5,1.9,4.72,2.11,5.49,5.06a.44.44,0,0,1-.65.5A35.57,35.57,0,0,1,191,332l.51,2.64a4.56,4.56,0,0,1,.53-.55.41.41,0,0,1,.6.53,7,7,0,0,0-.84,1.7c.14.89.26,1.78.33,2.68a.39.39,0,0,1-.17.35,10.11,10.11,0,0,0,.9,1.58,11.33,11.33,0,0,1,.57-5.3c.17-.57.9-.24.81.29a7.65,7.65,0,0,0,.08,2.92,3.14,3.14,0,0,1,1.54-2.73,4.35,4.35,0,0,1,1-.57c.49-.22.9.56.4.8a4.89,4.89,0,0,0-.86.53,2.09,2.09,0,0,0-.28.22l0,0a3.05,3.05,0,0,0-.88,2,11.51,11.51,0,0,0,1,3.44c.21.3.43.59.66.89.09-.31.48-.51.71-.17,2.33,3.24,4.37,7.11,7.5,9.61a16,16,0,0,0,11.55,3.58,16.7,16.7,0,0,0,7.4-2.7V317.26C223.32,317.39,222.67,317.48,222,317.56Z" transform="translate(-147.77 -208.67)"/><path class="cls-4" d="M261.46,355.31a16.17,16.17,0,0,1,1.46,1,15.9,15.9,0,0,1,1.32,1c-.07-.25-.15-.5-.23-.74-.43-.61-.88-1.19-1.26-1.71s-1-1.46-1.66-2.22v2A5.72,5.72,0,0,0,261.46,355.31Z" transform="translate(-147.77 -208.67)"/><path class="cls-4" d="M274.45,249.21a7,7,0,0,0-1.16-.84c.49.46.7.55.8,1.31h.68C274.74,249.34,274.43,249.52,274.45,249.21Z" transform="translate(-147.77 -208.67)"/><path class="cls-4" d="M224,302.41V261.77a12.93,12.93,0,0,1,1.83-6.63c-2.45,1.63-4.57,4-5.1,6.79-.64,3.44-.34,6.55-1.59,9.47l1.73-.27c.42-.06.8.56.33.76l-3,1.28c-.15.21-.3.43-.47.64h0l-.06.09a.42.42,0,0,1-.71-.19,29.59,29.59,0,0,0-6.1,3.41,27,27,0,0,1,7.42-.77c.31,0,.59.47.29.71-2.07,1.62-3.91,1-6.32,1.21a6.05,6.05,0,0,0-4.78,3.09c2.32-.91,5.51.38,8.06.71.55.07.59.92,0,.91-2.11,0-4.57-.58-6.62.09a5.43,5.43,0,0,0-2,1.13c-2.88,4.18-5.23,9.67-5.36,14.81s3.1,7.56,7.61,8c4.24.44,10.3-1.28,13.86,1.12a3.54,3.54,0,0,1-.15-.41A5.9,5.9,0,0,1,224,302.41Z" transform="translate(-147.77 -208.67)"/><path class="cls-3" d="M224,366.12v-3.85" transform="translate(-147.77 -208.67)"/><path class="cls-3" d="M220.7,310.94" transform="translate(-147.77 -208.67)"/><path class="cls-3" d="M222.16,312.07" transform="translate(-147.77 -208.67)"/><path class="cls-4" d="M272.79,245.83a7.37,7.37,0,0,1,2,1.86,6.37,6.37,0,0,1,.58-1.17A8.1,8.1,0,0,0,272.79,245.83Z" transform="translate(-147.77 -208.67)"/><path class="cls-4" d="M216.92,261.87l-.73.53c-.47.65-.9,1.32-1.3,1.9-1,1.46-2.53,3.42-2.85,5.29a15.77,15.77,0,0,1,3.55-1.6h.08a30,30,0,0,1,.8-4.43A16,16,0,0,1,216.92,261.87Z" transform="translate(-147.77 -208.67)"/><path class="cls-4" d="M282.82,290.67a18.76,18.76,0,0,1,3.57-.63,15.31,15.31,0,0,0,.41-1.78A24.5,24.5,0,0,0,282.82,290.67Z" transform="translate(-147.77 -208.67)"/><path class="cls-4" d="M260.84,373.94c3.58.55,6.82.3,7-3.55.17-3.22-1.24-8-4.83-10.35-.65-.44-1.3-.82-1.94-1.19v12.53A13.55,13.55,0,0,1,260.84,373.94Z" transform="translate(-147.77 -208.67)"/><path class="cls-4" d="M277.33,249.55a5.73,5.73,0,0,0-1-2.18,9.2,9.2,0,0,0-.47,1.93l.22.38" transform="translate(-147.77 -208.67)"/><path class="cls-4" d="M277.49,250" transform="translate(-147.77 -208.67)"/><path class="cls-4" d="M281.59,287.5c.27-.14.55-.25.82-.37a7.24,7.24,0,0,1,.24-.83C282.29,286.69,281.92,287.07,281.59,287.5Z" transform="translate(-147.77 -208.67)"/><path class="cls-4" d="M214.65,271.8a11.56,11.56,0,0,0,.84-2.78,20.85,20.85,0,0,0-5.93,4.93,21.77,21.77,0,0,1,5.09-1.75A.47.47,0,0,1,214.65,271.8Z" transform="translate(-147.77 -208.67)"/><path class="cls-4" d="M220.65,259a7.18,7.18,0,0,1-1.35,1.24,11.11,11.11,0,0,0-2.21,4.73c-.22,1.25-.36,2.52-.6,3.78,0,0,0,.07,0,.11s-.05.28-.08.42a13.28,13.28,0,0,1-.86,2.78c.75-.15,1.5-.28,2.26-.4,1.62-4.12,1.15-8.87,3.15-12.82A2.69,2.69,0,0,1,220.65,259Z" transform="translate(-147.77 -208.67)"/><path class="cls-4" d="M263.3,352.72c-.19-1.07-.42-2.1-.64-3.12a8.31,8.31,0,0,0-1.05-1c-.43-.32,0-.83.46-.5.12.08.22.17.33.25-.18-.81-.37-1.63-.53-2.44a.47.47,0,0,1-.33-.41c0-.23,0-.47-.06-.71a5.87,5.87,0,0,0-.27-1.22l-.12-.17v7.51a9.23,9.23,0,0,1,3.38,4.84,17.36,17.36,0,0,0-.28-3.16C264.2,353.11,263.39,353.21,263.3,352.72Z" transform="translate(-147.77 -208.67)"/><path class="cls-3" d="M187.41,307.08c2.59-1.58,5.09-5.46,3.51-8.59a3,3,0,0,0-3.25-1.92,6.15,6.15,0,0,0-3.7.52c-1.36.66-2.89,3.19-3.29,5.48a5.85,5.85,0,0,0-.22,1.32C180.32,308,184.72,308.72,187.41,307.08Z" transform="translate(-147.77 -208.67)"/><path class="cls-3" d="M233.05,241.32c-.14,4.09,4.26,4.83,6.95,3.19s5.09-5.46,3.51-8.59a3,3,0,0,0-3.25-1.92,6.15,6.15,0,0,0-3.7.52c-1.36.66-2.89,3.19-3.3,5.48A6.4,6.4,0,0,0,233.05,241.32Z" transform="translate(-147.77 -208.67)"/><path class="cls-4" d="M152.62,299.34a16.51,16.51,0,0,1-1.3-4.06,4.15,4.15,0,0,1-.5-1.08c-.66-3,.34-4.64,2.32-6.76.33-.35,1,.1.7.54a9.54,9.54,0,0,0-1.63,7.28,15.52,15.52,0,0,0,1.28,2c-.26-2.34-.1-4.62,1.65-6.39.4-.41,1,.17.63.62a7.35,7.35,0,0,0-1.38,5,19.21,19.21,0,0,1,2.25-2.26c.42-.35,1.05.2.63.62s-2.72,2.61-2.21,3.71a20.13,20.13,0,0,0,4.36.85,39.64,39.64,0,0,0,5.92-.85c1.34-.28,2.85-.65,4.38-1.13a20,20,0,0,0,8.11-7.4c2-3.15,3.83-7.89,2.61-11.7a12.24,12.24,0,0,0-1.32-2.4,2.65,2.65,0,0,0-.21-.26A18.22,18.22,0,0,0,177,273.9a.27.27,0,0,1-.2-.08c-1.58-1.5-4.13-2-5.68-3.55-1-.52-2.07-1-3.09-1.52-.39-.19-.17-.77.22-.77a11,11,0,0,1,6.35,2.55c-1.39-2.07-2.61-4.25-2.44-6.85a.34.34,0,0,1,.67,0,6.23,6.23,0,0,0,.32,1.47.31.31,0,0,1,.13.08,17.42,17.42,0,0,1,2,4.18s0,0,0,0c1.23,1.1,2.81,2,4.08,3.07l-.09-.23c-2.73-6.61-7-12.3-10.69-18.35-.24-.41.35-.85.64-.5a72.11,72.11,0,0,1,6.59,9.56,8,8,0,0,1-.24-.93,4.69,4.69,0,0,1,.81-4.8l0,0h0l0-.07c.23-.27.72.09.51.4a5.34,5.34,0,0,0-.9,4,20.65,20.65,0,0,0,2.31,4.6c0-.46,0-.91.11-1.36-.15-1.74,0-3.37,1.77-4.35.27-.15.71.17.48.48a9.32,9.32,0,0,0-1.58,4.09,30.61,30.61,0,0,1,.37,3.59.34.34,0,0,1-.24.3,28.93,28.93,0,0,1,2.16,3.38,12.9,12.9,0,0,0,1-2.89c.37-3-.4-6.15-.52-9.38-.17-4.68,1.87-7.75,5.83-9.84.4-.22.93.35.52.68-4.07,3.28-4.47,7.44-4.41,12.46a33.19,33.19,0,0,1-.13,3.89c.42-1.67.73-3.4,1.25-5.16a11.72,11.72,0,0,1,5.75-7.2.47.47,0,0,1,.47.82c-4.48,3-4.89,7.9-6.18,12.58,2.8-4.42,5.88-8.67,11.07-10a.47.47,0,0,1,.25.91,13.09,13.09,0,0,0-5.55,3.61l.5-.12.31-.11a32,32,0,0,1,7.11-.64h1.76a.48.48,0,0,1,0,1,39,39,0,0,0-8.41.6,8,8,0,0,0-3.89,3.16c3.18-1,6.54,1.62,10.17.54a.47.47,0,0,1,.25.91c-2.72.88-5.3.72-8.1.55a6.19,6.19,0,0,0-5.06,1.71l.42-.28a.22.22,0,0,1,.23.37,4.07,4.07,0,0,1,1.59.58c1.36.82,2.5,1.93,3.79,2.83,1.55,1.09,2.43,1,2.8-1.1.11-.6,1-.36.91.25-.48,2.7-2.11,3.2-4.19,1.67s-4.43-3.92-6.24-2.92c-2.19,3.08-1.19,8.49,0,11.7,1.57,4.37,5.76,8.74,10.69,7.07,4.38-1.49,7-6.22,9.12-10.17,1.26-2.29,2.8-4.61,3.24-7.27,0-.11,0-.22,0-.34v-4.45a.43.43,0,0,1-.42-.54,7.4,7.4,0,0,1,.42-1.23v-1.24a.42.42,0,0,1,.78-.19c1.5-2.15,4-3.35,6.54-4.44a53.27,53.27,0,0,1,5.54-5.5c2.17-2.07,5.42-5.3,3.11-8.54-2.67-3.73-7.76-5.81-11.92-7-.54-.15-1.08-.3-1.64-.44a.38.38,0,0,1-.13.24l.22,0c.55.06.58.91,0,.89a23.66,23.66,0,0,0-3.46.06,11.91,11.91,0,0,1-4.25,1.09,8.38,8.38,0,0,0-1.17.66c-1,1.16-1.8,2.43-2.8,3.55-.28.3-.92,0-.75-.43a8.34,8.34,0,0,1,2.63-3.51l0,0a15.34,15.34,0,0,0-5.09,1.12,14,14,0,0,0-1.56,1.27c-.34.32-1-.11-.7-.54l.07-.08h0l.06-.06a5.21,5.21,0,0,1,1.34-1.1,16.87,16.87,0,0,1,9.5-3.19,9,9,0,0,1,2.13-.22c-.09-.16-.18-.32-.26-.48a16,16,0,0,0-7.34.83.46.46,0,0,1-.56-.56c1.38-3.78,4.23-3.11,7.11-1.9a17,17,0,0,1-1.31-4.06,4.07,4.07,0,0,1-.49-1.08c-.66-3,.33-4.64,2.32-6.76.33-.35,1,.1.7.54a9.55,9.55,0,0,0-1.64,7.28,15.52,15.52,0,0,0,1.28,2c-.25-2.34-.1-4.62,1.66-6.39.4-.41,1,.17.63.62a7.3,7.3,0,0,0-1.38,5,17.79,17.79,0,0,1,2.25-2.26c.42-.35,1.05.2.63.62s-2.72,2.61-2.21,3.71a20.16,20.16,0,0,0,4.35.85,39.64,39.64,0,0,0,5.92-.85c1.35-.28,2.85-.65,4.38-1.13a20,20,0,0,0,8.11-7.4c2-3.15,3.84-7.89,2.62-11.7a13.38,13.38,0,0,0-1.32-2.4c-.08-.09-.14-.18-.22-.26-.6-.66.9.82.22.26-.07,0-2.9,1.43-3,1.37-1.23-1.17-44.64,21.31-68.85,56.53-6.9,10-11.75,30.57-8.36,30.39a8.56,8.56,0,0,1,2.13-.21l-.26-.49" transform="translate(-147.77 -208.67)"/><path class="cls-3" d="M190.46,405.87c-.15.28-.32.54-.49.8" transform="translate(-147.77 -208.67)"/><path class="cls-3" d="M189.53,409.48" transform="translate(-147.77 -208.67)"/><path class="cls-3" d="M278.29,378a7.5,7.5,0,0,0-1.08-.7c-3.52-1.77-5.51,1.08-4.91,3.67s3.2,5.88,6.41,6c1.68.08,2.45-.57,2.67-1.54a4,4,0,0,0,.68-2.86C281.9,381.36,280.17,379.23,278.29,378Z" transform="translate(-147.77 -208.67)"/><path class="cls-4" d="M292.57,328.41a6.3,6.3,0,0,0,.19-.92l0-.11a12.05,12.05,0,0,1-11.1,7.81H267.08a11.35,11.35,0,0,1-4-.73,18.55,18.55,0,0,0-.93,4.39.47.47,0,0,1,0,.14,29.36,29.36,0,0,0,.49,4.5c1.49,1.91,4.71,2.11,5.48,5.06a.44.44,0,0,1-.65.5,35.37,35.37,0,0,1-4.45-3.46c.28,1.41.56,2.82.78,4.24,1.57,2,1.88,4.37,2.05,6.74a50.66,50.66,0,0,1,3.09,6.22c1.15,2.4,3,6,6.5,5.72,4.07-.38,7.44-3.18,9.76-5.66.3-.32.6-.65.88-1a.52.52,0,0,1-.15-.18l-.1.13.09-.14h0l2.08-2.53c1-1.68,7.23-.63,11,.64.24.07,1.29-.18,1.54,0h0c2.64-2.36,5.81-4.5,7.55-7.7a16.49,16.49,0,0,0,1.24-12.31,22.6,22.6,0,0,0-5-9l-.14-.09a38.34,38.34,0,0,0-3.85-3c-2.26-.35-4.31,1.5-6.85.4a4.57,4.57,0,0,1-.15.55C293.23,329.16,292.41,329,292.57,328.41Z" transform="translate(-147.77 -208.67)"/><path class="cls-4" d="M149.56,306.47s1.64,1.29,0-.92c-1,.11,2,27.92,9.67,54.66,4.62,16.05,25.15,36.85,28.83,35-5,.8-5-1.2-3.32-1.31-2.83-1.81-3.23-6.16-6.42-8.26-.51-.33,0-1.13.47-.81,2.45,1.53,4.07,3.65,5.83,5.93a6.26,6.26,0,0,0,4.6,2.78c-.16-.05-.32-.08-.49-.14s-.15-.49.11-.42a4.7,4.7,0,0,1-.65-1.63c-.33-1.6-.31-3.23-.53-4.84-.27-1.94-.94-2.54-2.66-1.43-.5.31-.94-.56-.44-.88,2.24-1.43,3.69-.51,4,2.13s.19,6.07,2.12,6.81c3.66-.37,6.81-4.77,8.32-7.82,2-4.14,2.33-10.33-2.16-13-4-2.41-9.08-1.24-13.32-.28-2.47.57-5.14.93-7.32,2.36l-.27.2-5.29,5c-.39.36-.92-.27-.56-.65a34.28,34.28,0,0,1,5.43-5.14l.07-.06c-2.94.5-5.56-.36-8.23-2.05-.4-.25-.13-.92.32-.76a20.38,20.38,0,0,0,7.94,1.45c-3.64-1.55-6.47-4.23-9.56-6.87-.32-.28-.14-1,.33-.76,3.63,1.82,7,3.77,10.65,4.55a29.29,29.29,0,0,1-5.51-5.24c-.21-.25-.07-.78.31-.7,2.53.52,3.31,2.38,5.09,4.09a5.91,5.91,0,0,0,5.4,1.64c-2.2-1.19-3.43-4.53-4.9-6.73-.32-.48.25-1.08.64-.61,1.39,1.65,2.66,3.94,4.5,5.08a5.41,5.41,0,0,0,2.11.75c4.9-.57,10.36-2.42,14.09-5.76s3.29-7.48.6-11.3-8.5-7.59-8.58-12.34a4.61,4.61,0,0,1-.06-1.65c-.3-1.38-.6-2.74-.87-4.09a.48.48,0,0,1-.33-.41c0-.24,0-.47-.06-.71a5.73,5.73,0,0,0-.27-1.22c-.13-.16-.24-.34-.36-.52-.81,3.37,0,6.84-.17,10.3a.37.37,0,0,1-.06.21s0,.12,0,.18a6.55,6.55,0,0,0,2.85,3.41c.47.23.13,1-.34.82a4.29,4.29,0,0,1-3.35-3.86,15.14,15.14,0,0,1-1.08-5.87,39.33,39.33,0,0,1-1.13,4.2,11.29,11.29,0,0,1-.69,1.65c-.26.51-1,.08-.77-.44a15,15,0,0,0,.61-1.43l0-.05,0-.1c1.21-3.56.95-7.59,3-10.83a11.72,11.72,0,0,1-.89-2.25c-1.38-5-2.85-11.77-9.32-9.82-3.83,1.16-8.58,4.44-9.4,8.85s-.1,8.26-3,11.88h0l-.07.09c-.31.37-.93-.1-.68-.52,2.69-4.47,1.73-10.06,4-14.59a2.69,2.69,0,0,1-.29.16,7.13,7.13,0,0,1-1.34,1.24,11.12,11.12,0,0,0-2.22,4.73c-.21,1.25-.36,2.52-.59,3.78a.43.43,0,0,0,0,.11l-.09.42a13.23,13.23,0,0,1-1,3c-.24.52-1,.09-.77-.45,1.22-2.62,1-5.56,1.82-8.25a13.87,13.87,0,0,1,.45-1.68c-.25.17-.49.35-.73.53-.47.65-.91,1.32-1.3,1.9-1.05,1.55-2.74,3.66-2.91,5.63a.45.45,0,0,1-.89,0c-.43-3.65,1.49-5.78,3.87-7.64-2.93,1.12-5.81,2.21-6.75,5.67a.44.44,0,0,1-.85-.24c1-4,4.27-5.63,7.74-7.1a53.37,53.37,0,0,1,5.55-5.5c2.17-2.07,5.42-5.3,3.1-8.54-2.67-3.73-7.76-5.81-11.91-7l-1.64-.44a.44.44,0,0,1-.13.24l.22,0c.55.06.58.91,0,.89a23.77,23.77,0,0,0-3.47.06A11.8,11.8,0,0,1,150,304a8.49,8.49,0,0,0-1.18.66" transform="translate(-147.77 -208.67)"/><path class="cls-4" d="M289.72,359.25a18.06,18.06,0,0,1,3.94.73,3.89,3.89,0,0,1,1.09.09,6.86,6.86,0,0,1,3.66,2.14l1.43-.62c.24-.22.49-.46.73-.7a.61.61,0,0,1-.38-.32C297.8,360.29,291.13,358.11,289.72,359.25Z" transform="translate(-147.77 -208.67)"/><path class="cls-4" d="M314.3,225.68a6.16,6.16,0,0,0-5.06,1.71c.14-.1.27-.2.42-.29a.22.22,0,0,1,.23.37,4.27,4.27,0,0,1,1.59.59c1.36.81,2.5,1.92,3.79,2.83,1.55,1.09,2.43,1,2.8-1.11.11-.6,1-.36.91.25-.48,2.7-2.11,3.21-4.19,1.67s-4.43-3.92-6.24-2.92c-2.19,3.09-1.19,8.49,0,11.7,1.57,4.37,5.76,8.74,10.69,7.07,4.38-1.49,7-6.22,9.12-10.16C329.58,235.09,317.1,225.84,314.3,225.68Z" transform="translate(-147.77 -208.67)"/><path class="cls-3" d="M333.64,230.89l-.09-.07c-.05.06-.12.12-.17.19Z" transform="translate(-147.77 -208.67)"/><path class="cls-3" d="M332.44,230.07l.1-.14-.08-.08s0,.09,0,.13Z" transform="translate(-147.77 -208.67)"/><path class="cls-4" d="M364.17,318c0-31.36-6.94-49.78-27.5-70.48-.7,0-2-8.09-4-7.42a5.58,5.58,0,0,0-2,1.13c-2.88,4.18-5.23,9.67-5.36,14.81s3.1,7.57,7.61,8,11.08-1.51,14.5,1.62a3.86,3.86,0,0,1,2,3.7.4.4,0,0,1-.78.1,6.1,6.1,0,0,0-1.6-3.12,7.21,7.21,0,0,0-3-.94,10.81,10.81,0,0,1,3.37,4c.29.52-.43.86-.75.44a6.85,6.85,0,0,0-2.13-1.9,3.2,3.2,0,0,1,.91,3,5,5,0,0,1-.24,1.13c-.17.52-1,.32-.83-.23a5.47,5.47,0,0,0,.2-1,2.28,2.28,0,0,0,0-.36v0a3,3,0,0,0-.8-2,10.51,10.51,0,0,0-3.09-1.56l-1.06-.08c.15.28,0,.7-.36.67-3.87-.37-8-1.39-11.85-.63a16.42,16.42,0,0,0-10.28,6.58,18.27,18.27,0,0,0-3.21,8.9.29.29,0,0,1,0,.14,32.09,32.09,0,0,0,.49,4.5c1.5,1.91,4.72,2.11,5.49,5.06a.44.44,0,0,1-.65.5,34.66,34.66,0,0,1-4.45-3.46c.23,1.16,2.48,5.31,2.67,6.54s-1.7-.48-1.61.7c0,.51-.73.39-.82-.11-.43-2.34,2.3,8.3,1.86,6.08-.16-.06-3.6-13.05-3.62-13.27s0-.47-.06-.71a5.63,5.63,0,0,0-.27-1.21c-.13-.17-.24-.35-.36-.52-.81,3.37-.05,6.83-.17,10.29a.37.37,0,0,1-.06.21c0,.06,0,.12,0,.18.64,1.52,3.87,4.47,5.13,5.12.3.15-1-.5-1.23-.07s-.08.15-1.39-.82c-1.71-1.24-3.18-1.94-3.35-3.86a15.1,15.1,0,0,1-1.08-5.87,39.33,39.33,0,0,1-1.13,4.2c-.19.57,2.24,7.67,2,8.2s-3.7-3.51-3.43-4,.44-3.9.62-4.38l0-.06s-.17-3.93-.15-4c1.21-3.56,1.13-3.72,3.17-7a11.47,11.47,0,0,1-.89-2.25c-.35-1.26-.7-2.63-1.14-3.95a11.38,11.38,0,0,1-5.15,1.25H292.49a7.35,7.35,0,0,0-.55,1.74,31.07,31.07,0,0,0-.42,3.32l1.35-.21c.42-.06.8.56.33.76l-1.8.76a18.39,18.39,0,0,1-.76,4.08.33.33,0,0,1-.11.33h0a9.9,9.9,0,0,1-1.62,2.82h0l-.07.09c-.31.37-.93-.09-.68-.52a11.65,11.65,0,0,0,.77-1.54,7.43,7.43,0,0,1-2.2.29l-.06.12a.43.43,0,0,1-.8-.12,15.73,15.73,0,0,0-1.65.06,6.07,6.07,0,0,0-4.78,3.09c2.32-.91,5.51.38,8.06.71.55.07.59.92,0,.91-2.1,0-4.57-.58-6.62.09a5.58,5.58,0,0,0-1.95,1.13,33.22,33.22,0,0,0-4.42,9.16h7.13a12.21,12.21,0,0,1,11.81,10.4c.13.09.26.17.38.27a18.05,18.05,0,0,1,5.3,3.65c-.9-1.3-1.83-2.61-2.6-4a15.69,15.69,0,0,1-.87-1.74c-.24-.57.58-.79.83-.22s.47,1,.74,1.52l0,.06.06.09c2,3.55,5.38,6.4,6.66,10.3a13.77,13.77,0,0,1,2.33,1.06c4.83,2.81,11.05,6.83,13.56.73a12.14,12.14,0,0,0-1.42-12.12c-2.95-3.91-7.5-9-8.51-13.8l1.37,1.4h0l0-.11c-.1-.5-.43-2.5-.26-2,1.85,5.3,7.94,10.72,10.08,15.78a3.26,3.26,0,0,1,.05-.33A8.23,8.23,0,0,1,321,316a13.5,13.5,0,0,0-2.34-5.15c-.85-1.1-1.76-2.16-2.6-3.28l-.08-.1-.27-.37a16.18,16.18,0,0,1-1.79-3c-.26-.57.58-.8.84-.22,1.3,2.85,3.76,4.9,5.37,7.52a18.89,18.89,0,0,1,1,1.59c0-.31,0-.61,0-.92-.22-.83-.48-1.64-.69-2.36a25.67,25.67,0,0,0-4.18-7.26c-.43-.47,1.63-.08,2.12.3,3.15,2.44,3.62,5.42,3.6,8.52.95-2.94-4.3-11.13-6.44-14.41-.33-.52.6,0,.36-.77-1.34-4.25,10,4.89,7.31,16.55a60.52,60.52,0,0,1,.87,8.11c.28,3.11.79,7.87,4.79,8.66,4.61.9,9.42-1.18,13-3.25.46-.27.92-.55,1.37-.84a.54.54,0,0,1-.11-.27l-.15.14c-.4.34-1.09-.28-.7-.67a20.21,20.21,0,0,0,2.11-2.53,10.37,10.37,0,0,1,1.8-3.86,9.84,9.84,0,0,0,.21-1.34c-.31-1.56-.79-3.11-1.05-4.68a.42.42,0,0,1,.81-.2,9.57,9.57,0,0,1,1.12,4.52v0a13.42,13.42,0,0,0,2.3-4.48,14.51,14.51,0,0,0,0-2.08.43.43,0,0,1,.86-.1.49.49,0,0,1,0,.12h0a.28.28,0,0,1,0,.09,5.15,5.15,0,0,1,0,1.79,15.31,15.31,0,0,1-3.42,9.2,7.08,7.08,0,0,1-1.16,1.68l.55.19c1.73-1.6,11.08-2.05,11.84-4.43.1-.3,0,1,.17,1.37,2.12,3.84-7.49,2.57-10.23,3.72a20.11,20.11,0,0,1,4,2.12,4.47,4.47,0,0,1,1.16.47c2.77,1.77,3.45,3.73,3.87,6.75.08.5-.69.63-.86.09a11.88,11.88,0,0,0-4.71-6.65,15.94,15.94,0,0,0-2.36-.58c2,1.58,3.7,3.41,4,6,.07.6-.76.58-.88,0a9.19,9.19,0,0,0-3.11-4.78,22.09,22.09,0,0,1,.38,3.31.45.45,0,1,1-.89,0c-.09-.76-.35-3.9-1.54-4.37a16.48,16.48,0,0,0-3.39,2.47,34.66,34.66,0,0,0-3,4.88,37.59,37.59,0,0,0-1.84,4,21.53,21.53,0,0,0,.76,11.37c1.25,3.78,3.82,8.69,7.58,10.7a14.2,14.2,0,0,0,2.72.85l.34.05a17.7,17.7,0,0,0,2.63,0,.2.2,0,0,1,.18-.09c2.17,0,1.18-5.62,3.36-5.56" transform="translate(-147.77 -208.67)"/><path class="cls-4" d="M293.63,321a6.08,6.08,0,0,1,2,1.2,3.89,3.89,0,0,1,1.73,2l1.58,1a.45.45,0,0,1,.52.07c.21.16.4.33.6.49a6.68,6.68,0,0,0,1.13.72l.63.14c-2.15-3.12-5.35-5.19-8-7.88a.53.53,0,0,1-.12-.2c-.05,0-.09-.1-.14-.15h0c0,.33.05.67.05,1Z" transform="translate(-147.77 -208.67)"/><path class="cls-4" d="M244,211.25c1.55,1.09,2.42,1,2.8-1.1.1-.6,1-.36.91.25-.49,2.7-2.11,3.2-4.19,1.67s-7.43,5.57-6.28,8.78c1.57,4.37,5.76,8.74,10.69,7.07,4.37-1.49,7-6.22,9.12-10.17,1.26-2.29,2.8-4.61,3.24-7.27,0-.11,0-.22,0-.34s1.25-2.31.84.2v.1c1.61-2.61,2.64-1.27.94.94,3.54-1.79,4.2.9,1.23,3.17a26.87,26.87,0,0,1,7.41-.77c.32,0,.6.47.29.71-2.06,1.62-3.91,1-6.31,1.21a6.05,6.05,0,0,0-4.78,3.09c2.32-.91,5.5.38,8.05.71.56.07.6.92,0,.9-2.1,0-4.57-.57-6.61.1a5.35,5.35,0,0,0-1.95,1.13c-2.88,4.18-5.23,9.67-5.37,14.81s3.1,7.56,7.61,8c4.36.45,10.63-1.36,14.14,1.33a15.17,15.17,0,0,1,1.1-1.29c.33-.36,1,.1.7.53a12.4,12.4,0,0,0-.83,1.48,3.74,3.74,0,0,1,1.32,2.44,5.58,5.58,0,0,1,.81-1.05c.4-.41,1,.18.63.63s-.52.51-.72,1.07l20.88.06a14.33,14.33,0,0,0,1.9-2.55c2-3.16,3.83-7.89,2.61-11.71a11.9,11.9,0,0,0-1.32-2.39c-.07-.09-.13-.18-.21-.27a19.32,19.32,0,0,0-2-1.79.31.31,0,0,1-.2-.07c-1.58-1.5-4.13-2-5.68-3.56-1-.52-2.07-1-3.09-1.51-.39-.19-.17-.78.22-.78a11,11,0,0,1,6.35,2.55c-1.39-2.07-2.61-4.24-2.44-6.84a.34.34,0,0,1,.67,0,6.26,6.26,0,0,0,.32,1.46.46.46,0,0,1,.13.08,17.42,17.42,0,0,1,2,4.18s0,0,0,.05c1.23,1.11,2.81,2,4.08,3.07l-.09-.23c-2.73-6.6-5.41-12.64-3.46-9.29a8,8,0,0,1-.24-.93c-.53-1.57.3-1.87.5-.46a20.8,20.8,0,0,0,2.31,4.59c0-.46,0-.91.11-1.36-.15-1.74.9-1.29.67.22a30.61,30.61,0,0,1,.37,3.59.32.32,0,0,1-.24.3,29.79,29.79,0,0,1,2.16,3.38,12.73,12.73,0,0,0,1-2.89C306.62,223.51,242.75,210.35,244,211.25Z" transform="translate(-147.77 -208.67)"/><path class="cls-4" d="M296.29,366.53a6.11,6.11,0,0,0,2.61-1.46,10.64,10.64,0,0,1-5.25-.6.43.43,0,0,1,.12-.86,7.84,7.84,0,0,0,1,.09,10.69,10.69,0,0,0-3.17-2,17.77,17.77,0,0,1,1.28,2.54.32.32,0,0,1,0,.16" transform="translate(-147.77 -208.67)"/><path class="cls-3" d="M206.31,374.16a6.61,6.61,0,0,0,2.85,2.53c1.39.61,4.2.11,6.1-1.12a5.47,5.47,0,0,0,1.08-.72c3-2.63.56-6.54-2.4-7.53s-7.29-.29-8.44,3A3.23,3.23,0,0,0,206.31,374.16Z" transform="translate(-147.77 -208.67)"/><path class="cls-4" d="M294.39,410.38" transform="translate(-147.77 -208.67)"/><path class="cls-4" d="M302.25,413.27a44,44,0,0,1-6.67-3.13l-.08,0" transform="translate(-147.77 -208.67)"/><path class="cls-4" d="M311.49,396.32c-1.16-.53-2.28-1.08-3.35-1.69,1.33,1,2.75,1.92,4.12,3,2.57,2.05,4,.07,4.52,2.81.1.5-2,.95-2.11.44-1.28-4.45-4.15-2.92-7.83-5.76,3,3.81,5.75,7.76,5.36,12,0,.48-.87.3-.87-.19a10.77,10.77,0,0,0-1.45-5.45c0,.14,0,.27-.05.41a1.13,1.13,0,0,1,0,.26,20.08,20.08,0,0,1-1.62,5.35c-.17.42-.35.84-.53,1.26s-1,.05-.82-.39a24.82,24.82,0,0,0,2.05-6.26,7,7,0,0,0-1.56-4.07c-.11,2.68-3.42,4-3.6,7.05,0,.48-.88.3-.87-.19a13.79,13.79,0,0,1,2-6,4.44,4.44,0,0,0,.06-4.31c0,.13.09.27.12.41s-.32.24-.39,0a2.86,2.86,0,0,1-1,.89c-1.12.64-2.44,1-3.63,1.56-1.43.66-1.59,1.33.11,2.45.48.32,0,.88-.5.55-2.21-1.45-2.15-2.82-.17-3.68s4.78-1.56,4.45-3.27c-2-2.83-7-4.33-10.18-4.82-4.29-.66-9.38.55-9.44,4.76-.05,3.74,3.29,7.53,6.06,10.69,1.62,1.84,3.17,3.89,5.35,5.29l.28.17" transform="translate(-147.77 -208.67)"/><path class="cls-4" d="M335.54,385.15c-2.06-1.79.29.56-1.44-1.62l-.07-.07c1.05,3.12-2.91,2.89-4,5.74a12.12,12.12,0,0,0-.3,1.38c.38-2.74,3.68-4.28,3-7.16-.81,3.89-2.85,6.9-4.83,10.2-.2.34-.94.15-.8-.34,1.07-3.88,2.3-7.53,2.36-11.37a22.65,22.65,0,0,1-4,5.88.45.45,0,0,1-.74-.32c0-2.7,1.68-3.53,3-5.43a6.17,6.17,0,0,0,.55-5.75c-.73,2.35-3.74,3.65-5.59,5.23-.41.34-1.09-.26-.71-.68,1.33-1.48,3.31-2.84,4-4.8a5.41,5.41,0,0,0,.33-2.26c-1.49-5.21-4.35-11-8.32-15s-7.89-3.49-11.08-.61-5.73,9.06-10.33,9.16c-1.37.31-2.47-.67-3.81-2.06a2.32,2.32,0,0,1-.4-.69.64.64,0,0,1-.17-.19c-.29-.58-1.43-3-2.55-3.09a13,13,0,0,0-2.08,2.76,26.18,26.18,0,0,0-1.07,4.59,30.85,30.85,0,0,0-.36,3.6,18.35,18.35,0,0,0,4,8.83c2.15,2.69,5.7,6,9.4,6.66a13,13,0,0,0,2.5,0l.29,0a14.68,14.68,0,0,0,2.16-.67.21.21,0,0,1,.13-.11c1.79-.51,3-2.13,4.84-2.6.77-.53,1.52-1.07,2.26-1.59.29-.21.73.19.62.47-.69,1.64-2.4,2.73-4.18,3.5a12,12,0,0,1,6.72,1.06c.37.19.18.62-.21.47a7.91,7.91,0,0,0-1.37-.37.29.29,0,0,1-.11.06,17.66,17.66,0,0,1-4.27-.25h-.05c-1.34.43-2.64,1.17-3.93,1.66l.23,0c6.59.75,12.88,0,19.28-.14.42,0,.63.6.23.66a69.17,69.17,0,0,1-10.35.8c.3.06.59.13.89.21a5.48,5.48,0,0,1,3.93,2.55l0,0h0l.05.07c.17.27-.3.48-.5.2a6.2,6.2,0,0,0-3.25-2.29,21.66,21.66,0,0,0-4.72-.24c.4.21.78.42,1.15.64,1.57.6,2.94,1.38,3.25,3,.05.26-.36.44-.57.15a10.68,10.68,0,0,0-3.07-2.8,33.11,33.11,0,0,1-3.24-1.21.28.28,0,0,1-.19-.29,28.73,28.73,0,0,1-3.61.16,15.68,15.68,0,0,0,2.22,1.88c2.51,1.48,5.48,2.22,8.33,3.46" transform="translate(-147.77 -208.67)"/><path class="cls-4" d="M350.64,368.89c0,.17,0,.34,0,.51s-.45.17-.43-.11a3.49,3.49,0,0,1-1.46.69c-1.49.36-3.07.34-4.6.58-1.83.29-2.28,1-.87,2.84.4.52-.36,1-.77.46-1.83-2.38-1.21-3.92,1.3-4.25s5.86-.22,6.2-2.27c-1.06-3.9-5.94-7.25-9.19-8.85-4.43-2.17-10.49-2.47-12.25,2.32-1.57,4.25.55,9.67,2.31,14.19,1,2.63,1.89,5.48,3.7,7.79l.24.29" transform="translate(-147.77 -208.67)"/><path class="cls-4" d="M291.25,410a17.66,17.66,0,0,1-1.61,5.62.41.41,0,0,1-.7-.08c-.78-2.15.35-3.2.88-5a5,5,0,0,0-1.23-4.69c.08,2-2,3.79-3.09,5.48-.23.37-1,.05-.79-.37.67-1.49,1.91-3,2-4.77a4.32,4.32,0,0,0-.39-1.86,33.17,33.17,0,0,0-11.26-9.9c-4.35-2.15-7.55-.88-9.34,2.15s-2.08,8.55-5.85,9.72a3.86,3.86,0,0,1-3.83-.11c-.38-.19-.28-.71.15-.6a6.29,6.29,0,0,0,3.21.14,4.8,4.8,0,0,0,1.74-1.78,9.58,9.58,0,0,1-4.52.78c-.54,0-.62-.66-.15-.72a5.72,5.72,0,0,0,2.31-.74,3.51,3.51,0,0,1-2.92-.59,6.46,6.46,0,0,1-.9-.63c-.41-.34,0-.84.45-.51a6.54,6.54,0,0,0,.83.57,2.38,2.38,0,0,0,.31.17l0,0a3.18,3.18,0,0,0,2,.24,7.13,7.13,0,0,0,2.31-1.57c.14-.24.27-.48.4-.72-.29,0-.63-.27-.47-.54,1.5-2.61,3.65-5.13,4.18-8.21a13.46,13.46,0,0,0-2.59-10.05,20.26,20.26,0,0,0-3.11-3.38,11.92,11.92,0,0,1-10.16,5.92H236a11.83,11.83,0,0,1-9.7-5.22c-.78,4.54,1.14,9.8,3,13.77.25.53.51,1.05.78,1.57a.4.4,0,0,1,.26-.06l-.13-.18c-.32-.48.26-1.07.63-.6a26.48,26.48,0,0,0,2.37,2.65,12.19,12.19,0,0,1,3.62,2.56,8.62,8.62,0,0,0,1.25.47c1.47,0,2.93-.23,4.4-.2.4,0,.62.71.19.87a7.54,7.54,0,0,1-4.25.3h0a16.25,16.25,0,0,0,4.2,3.2,13.45,13.45,0,0,0,1.95.36c.45.05.61.87.09.9a.4.4,0,0,1-.11,0h-.09a4.8,4.8,0,0,1-1.68-.3,17.17,17.17,0,0,1-8.62-5.24,9.48,9.48,0,0,1-1.59-1.51c0,.18-.11.36-.17.53a16.92,16.92,0,0,0,5.51,5.14.48.48,0,0,1,0,.81c-3.6,1.47-5-1.2-6.11-4.24a17,17,0,0,1-2,3.73,4,4,0,0,1-.44,1.11c-1.67,2.52-3.52,2.85-6.34,2.73-.47,0-.6-.84-.09-.91a8.67,8.67,0,0,0,6.25-3.61,15.7,15.7,0,0,0,.55-2.32c-1.49,1.77-3.21,3.18-5.64,3a.46.46,0,0,1,0-.91c1.93-.05,3.21-1.08,4.49-2.3a18.09,18.09,0,0,1-3.11-.23c-.53-.09-.56-.95,0-.91s3.66.37,4.1-.77a22.34,22.34,0,0,0-2.31-3.95,42.73,42.73,0,0,0-4.58-4,43.23,43.23,0,0,0-3.74-2.64,18.87,18.87,0,0,0-10.68-1.34c-3.54.59-8.16,2.31-10,5.81a13,13,0,0,0-.81,2.64c0,.11,0,.22,0,.34a19,19,0,0,0,0,2.72.31.31,0,0,1,.08.2c0,2.23,1.34,4.56,1.28,6.79.33,1.15-1.87-.5-2.14-2.88-.54,2.47-1.87,1.63-1.28.2,0,0,0,0,0-.05,0-1.7-.44-3.55-.56-5.23,0,.08-.07.15-.1.22-1.86,4.26,11.57,5.2,10.5,9.73,18.57,12.67,29.06,10.62,53.31,10.62,37.11,0,60.33-16.14,81.46-43.13-.2-.18-4.28,5.85-4.08,5.62" transform="translate(-147.77 -208.67)"/><path class="cls-3" d="M327.28,340c-3.13-3.18-6.46-.58-6.85,2.57s1.13,7.76,4.58,9c1.8.64,2.91.16,3.54-.88a5.23,5.23,0,0,0,1.9-3c.33-1.47-.7-4.47-2.26-6.49A8.24,8.24,0,0,0,327.28,340Z" transform="translate(-147.77 -208.67)"/><path class="cls-4" d="M296.85,326a6.31,6.31,0,0,0-.27-.93c-1-.68-2-1.38-3-2.12a.66.66,0,0,0,0,.14,14.48,14.48,0,0,1,2,2.85c.29.52-.43.86-.75.44a7.33,7.33,0,0,0-1.44-1.45c0,.13-.05.26-.08.39a3.21,3.21,0,0,1,.33,1.51,31.11,31.11,0,0,1,4.84-.46l-.88-.59v.12A.4.4,0,0,1,296.85,326Z" transform="translate(-147.77 -208.67)"/><path class="cls-3" d="M222.16,312.07" transform="translate(-147.77 -208.67)"/><path class="cls-3" d="M223.61,312.48" transform="translate(-147.77 -208.67)"/><path class="cls-3" d="M260.62,354.7" transform="translate(-147.77 -208.67)"/><path class="cls-3" d="M261,354.68l-.37-.24v.89l.44.27" transform="translate(-147.77 -208.67)"/><path class="cls-3" d="M293.52,361.73a1.83,1.83,0,0,1,.13.16" transform="translate(-147.77 -208.67)"/><path class="cls-3" d="M275.35,250.18h.54" transform="translate(-147.77 -208.67)"/><path class="cls-3" d="M274.77,247.69" transform="translate(-147.77 -208.67)"/><path class="cls-3" d="M278.15,249a5.69,5.69,0,0,0-.56,1.17" transform="translate(-147.77 -208.67)"/><path class="cls-5" d="M260.69,352.21c-.13-2.55-.44-6.63.16-9.12l.24.34V333.5c.53-2.69,2.2-5.91,2.2-10.54l-2.2-3.68c-5.11,4.5-8.67.29-8.6-1.83a6.26,6.26,0,0,1,.22-1.32c.4-2.3,1.93-4.83,3.29-5.49.88-.43,5.28-.43,6.39-.34.59-.54-2-1.27-1.3-1.69V303a12.94,12.94,0,0,1-4.37-6c-1.15-3.21-2.15-8.61,0-11.7,1.27-.7,2.82.27,4.33,1.43v-1.18a15.15,15.15,0,0,0-1.4-1,4,4,0,0,0-1.59-.59.22.22,0,0,0-.22-.37c-.16.09-.29.19-.43.28a5.74,5.74,0,0,1,3.64-1.67V280c-.3,0-.71-.06-.62-.18a11.18,11.18,0,0,1-1.93-.22c-.52.74-.2.83,0,0-.5-.15-.5-.9-.67-.25.07-.71-3.2,2-3.4,3.67a13.29,13.29,0,0,1-1,2.89,28.93,28.93,0,0,0-2.16-3.38.34.34,0,0,0,.24-.3,30.61,30.61,0,0,0-.37-3.59,10.18,10.18,0,0,1,.87-2.87,11,11,0,0,1-.74-.92,4.52,4.52,0,0,0-.79,3.57,12.27,12.27,0,0,0-.12,1.36,20.65,20.65,0,0,1-2.31-4.6,6,6,0,0,1,.07-2.2s-.08,0-.12,0l-.57-.39a4.88,4.88,0,0,0,.12,3.09,8,8,0,0,0,.24.93,74.23,74.23,0,0,0-4.09-6.28c.21,1,.4,2.05.57,3.08a78.66,78.66,0,0,1,7,12.49l.09.23c-1.27-1-2.85-2-4.08-3.07,0,0,0,0,0-.05a17.42,17.42,0,0,0-2-4.18.46.46,0,0,0-.13-.08,7.48,7.48,0,0,1-.32-1.46.34.34,0,0,0-.67,0c-.16,2.6,1.06,4.77,2.44,6.84a11,11,0,0,0-6.35-2.55c-.39,0-.61.59-.22.78,1,.49,2.06,1,3.09,1.51,1.55,1.54,4.1,2.06,5.68,3.55a.27.27,0,0,0,.2.08,18.22,18.22,0,0,1,1.95,1.79c.08.08.14.18.21.26a12.86,12.86,0,0,1,1.33,2.4c1.21,3.82-.66,8.55-2.62,11.7a20,20,0,0,1-8.11,7.4c-1.53.48-3,.85-4.38,1.13a41,41,0,0,1-5.92.86,20.77,20.77,0,0,1-4.36-.86c-.51-1.1,1.7-3.18,2.21-3.7s-.21-1-.63-.63a20,20,0,0,0-2.25,2.26,7.37,7.37,0,0,1,1.38-5c.37-.44-.23-1-.63-.62-1.75,1.77-1.91,4.05-1.65,6.39-.1-.13-.18-.26-.27-.38a4.08,4.08,0,0,1,.35,1.94.4.4,0,0,1-.78.11,7.16,7.16,0,0,0-.85-2.16v.87c.2.57.42,1.14.68,1.72l-.68-.28v1.82c.49,0,1,0,1.47.09l.26.49a9.12,9.12,0,0,0-1.73.15v2.1a8.35,8.35,0,0,0,2.3-.79,23.77,23.77,0,0,1,3.47-.06c.58,0,.55-.82,0-.89l-.22,0a.41.41,0,0,0,.13-.24l1.64.44c4.15,1.21,9.24,3.28,11.91,7,2.32,3.24-.93,6.47-3.1,8.54a55.42,55.42,0,0,0-5.55,5.5c-3.47,1.48-6.77,3.15-7.74,7.1a.45.45,0,0,0,.48.55c0-.86.44.35,1-.5.19-.31.31-2.29.41-1.93,1.34-1.86,3.52-2.7,5.75-3.54-2.34,1.82-4.23,3.92-3.88,7.47.58-.81,1.17-1.62,1.8-2.4.61-1.12,1.41-2.18,2-3.07.39-.58.83-1.24,1.3-1.9l.73-.53a14.92,14.92,0,0,0-.45,1.68c-.62,2-.65,4.17-1.14,6.22q.57-.58,1.17-1.14c.22-1.24.37-2.48.58-3.71a11.24,11.24,0,0,1,2.22-4.73,7.13,7.13,0,0,0,1.34-1.24l.3-.16a23.42,23.42,0,0,0-1.86,7.23,3.2,3.2,0,0,1-.08.54,24.21,24.21,0,0,1-1.2,5l.52-.24c.32-.13.65-.26,1-.37,1-2.78.79-5.74,1.4-9,.83-4.42,5.57-7.7,9.4-8.86,6.47-1.95,7.94,4.79,9.32,9.82a11.47,11.47,0,0,0,.89,2.25c-2,3.24-1.78,7.27-3,10.83l-.29.69c.23.21.49.41.73.59l.35-.91a41.88,41.88,0,0,0,1.14-4.2c0,.53.11,1.81.16,2.34" transform="translate(-147.77 -208.67)"/><path class="cls-5" d="M238.13,348.26l-.09,0a15.49,15.49,0,0,0-1.41.71l-.26.49c-.26.43.36.89.67.52l.07-.09h0a9.64,9.64,0,0,0,1.12-1.71l0,0Z" transform="translate(-147.77 -208.67)"/><path class="cls-5" d="M256.1,353.68c-.26.52.51.95.77.45.13-.25.24-.5.34-.75-.24-.18-.49-.38-.73-.59C256.36,353.09,256.25,353.39,256.1,353.68Z" transform="translate(-147.77 -208.67)"/><path class="cls-5" d="M242.09,269.41c0-.24,0-.47-.05-.71a5.85,5.85,0,0,0-.21-1c-.15-.2-.3-.4-.46-.59-.09.4-.16.81-.21,1.22.48.77,1,1.54,1.45,2.31-.06-.28-.13-.57-.18-.85A.46.46,0,0,1,242.09,269.41Z" transform="translate(-147.77 -208.67)"/><path class="cls-5" d="M249,271.12c.22-.31-.28-.67-.51-.39l0,.06h0l0,0c-.1.13-.18.25-.26.37a4.89,4.89,0,0,1,.38.72A5.06,5.06,0,0,1,249,271.12Z" transform="translate(-147.77 -208.67)"/><path class="cls-5" d="M258.86,350.61a13.87,13.87,0,0,0,.91,3.53.5.5,0,0,1,0,.12c.44.27.87.53,1.3.81v-.34q-.25-.45-.48-1c0-.06,0-.12,0-.18a.37.37,0,0,0,.06-.21c0-.39,0-.78,0-1.17A8,8,0,0,0,258.86,350.61Z" transform="translate(-147.77 -208.67)"/><path class="cls-5" d="M224.63,309.47a6.34,6.34,0,0,1-.39-.66,9.55,9.55,0,0,1,1.63-7.28c.29-.43-.37-.89-.7-.53a15.87,15.87,0,0,0-1.2,1.41v6.47A4.1,4.1,0,0,1,224.63,309.47Z" transform="translate(-147.77 -208.67)"/><path class="cls-5" d="M250.08,367.8a10.68,10.68,0,0,0-1.4.54l.94.61a5.21,5.21,0,0,1,.66-.24C250.82,368.54,250.61,367.64,250.08,367.8Z" transform="translate(-147.77 -208.67)"/><path class="cls-5" d="M234.78,345.89c-1.85,1.91-3.55,4-5.87,5.28,0-.21.1-.42.13-.63a5.84,5.84,0,0,1,.68-1c.15-.18.31-.35.46-.52a.48.48,0,0,0,.07-.53c1.28-1.83,2.47-3.76,3.85-5.66.29-.4-.35-1-.68-.61s-.74.85-1.09,1.29c-.47.84-1.32.14-1.39,1-.05.58-.33,2.14-.4,1.57,0-.05,0-.1,0-.16l-1.32,1.89a40.07,40.07,0,0,0-.53-5.78s0,0,0,0a6.41,6.41,0,0,0-1,2.12.41.41,0,0,1-.37.31c.09,1.73.92,3.46.69,5.09a30,30,0,0,1-2.87,3.4.83.83,0,0,0-.08.12c-.34.28-.7.53-1.06.78v8.49a29.45,29.45,0,0,1,3.39-6.84,12,12,0,0,0,1-2.2c3.13-.5,7.28-3.75,10-5.28a5.45,5.45,0,0,0,.39-.89c-1.1.51-3.65,1.72-4.71,2.31a14.42,14.42,0,0,0,3.43-4.77,4.25,4.25,0,0,0,1-1.92c0-.18.06-.36.08-.54a5.49,5.49,0,0,0-.56-2.73.44.44,0,0,0-.82.28,6.93,6.93,0,0,1-.5,4.5l-.14.12a.37.37,0,0,0-.19.09c-.13.11-.25.23-.37.35a.17.17,0,0,0,0,.07.5.5,0,0,0,0,.12c0,.13-.54.24-.56.38" transform="translate(-147.77 -208.67)"/><path class="cls-5" d="M244.45,371l1.24.34c.54-.37,3.38-2,3.93-2.36-.35-.15-.58-.47-.94-.61C248.08,368.74,245.05,370.56,244.45,371Z" transform="translate(-147.77 -208.67)"/><path class="cls-6" d="M250.2,372.38l.39.15c.25.09.49.16.72.22l0,0a.51.51,0,0,0,.08-.51l-.46-.28a.61.61,0,0,0-.22.1A5,5,0,0,1,250.2,372.38Z" transform="translate(-147.77 -208.67)"/><path class="cls-5" d="M246.71,367c-.31-.25-.72-.55-1-.81-.05,0-.66.32-.71.28a18.36,18.36,0,0,0-1.61,1.1,13.6,13.6,0,0,1,1.71.34C245.4,367.71,246.39,367.17,246.71,367Z" transform="translate(-147.77 -208.67)"/><path class="cls-5" d="M245.69,366.18q.5.42,1,.81a11.93,11.93,0,0,1,3.17-1.11c.47-.08.38-.88-.09-.87h-.11a9.12,9.12,0,0,0-4.07,1.09h0Z" transform="translate(-147.77 -208.67)"/><path class="cls-5" d="M234.43,375.23a51.27,51.27,0,0,0,7.61.62c3.38,1.7,6.78,3.15,10.23,1.24.49-.26.08-1.06-.4-.81-3.08,1.59-5.78.08-8.54-1.44.58.12,1.16.21,1.73.27a72.8,72.8,0,0,1,7.24-2.32c-.36-.1-1-.75-1.34-.86-1.21.28-5.12,1.48-6.16,1.61-.68.09-1.44.2-2.22.27l-.87-.21a13.3,13.3,0,0,0,1.5-.78c.54-.25,2-1.18,2.48-1.51-.39-.13-.85-.2-1.24-.34a14.65,14.65,0,0,1-5.52,1.9,7.54,7.54,0,0,0-1.78-.21l-.31-.12c2.6-.68,4.77-2.34,7-3.85l-.49-.23a.53.53,0,0,1-.16-.13l-.16-.08-.54,0c-1,.8-2.08,1.64-3.28,2.4-3.69,2.32-9.19.84-12.58-1.37a6.27,6.27,0,0,1-2.68-3.13v5.26a12.82,12.82,0,0,0,2.3,7.34c0-.06,0-.12,0-.18C227,374.58,231.51,374.93,234.43,375.23Z" transform="translate(-147.77 -208.67)"/><path class="cls-5" d="M239.61,347.75c.54-.14.33-1-.2-.89l-.66.2a10.84,10.84,0,0,1-.52,1.16A13.18,13.18,0,0,1,239.61,347.75Z" transform="translate(-147.77 -208.67)"/><path class="cls-5" d="M225.25,310.41a3.57,3.57,0,0,0-.62-.94" transform="translate(-147.77 -208.67)"/><path class="cls-5" d="M239.42,262.9a12.4,12.4,0,0,0,.89,2.25c-2,3.24-1.77,7.27-3,10.83l0,.1s0,0,0,.05a15,15,0,0,1-.61,1.43c-.26.52.51.95.76.44a11.29,11.29,0,0,0,.69-1.65,41.88,41.88,0,0,0,1.14-4.2,15,15,0,0,0,1.08,5.87,4.27,4.27,0,0,0,3.34,3.86c.47.15.82-.59.35-.82a6.51,6.51,0,0,1-2.85-3.41c0-.06,0-.13,0-.18a.65.65,0,0,0,.06-.21c.1-3-.45-6-.08-8.91l-.53-.85c-.24-.4.36-.85.64-.5a1.13,1.13,0,0,1,.1.13,1,1,0,0,0,0-.17c.13.18.24.36.37.52l.06.24c.67.83,1.32,1.69,1.94,2.56-.05-.27-.1-.54-.16-.81a33,33,0,0,0,3.89,3.07,5.09,5.09,0,0,1,.67-1.34c-1.22-1.83-3.69-2.23-4.94-3.83a32.25,32.25,0,0,1-.49-4.5.66.66,0,0,0,0-.15,18.23,18.23,0,0,1,3.21-8.89,15.59,15.59,0,0,1,4.85-4.48,11.66,11.66,0,0,0-1.68-.14H236a11.91,11.91,0,0,0-10.17,5.93,16.7,16.7,0,0,1,4.3-2.06C236.58,251.13,238,257.87,239.42,262.9Z" transform="translate(-147.77 -208.67)"/><path class="cls-5" d="M243.86,276.59a.45.45,0,0,0,.88-.12c-.08-1-.22-2.08-.4-3.11-.58-.9-1.16-1.8-1.73-2.7C243,272.6,243.48,274.55,243.86,276.59Z" transform="translate(-147.77 -208.67)"/><path class="cls-5" d="M248.72,272.43c-.05-.18-.11-.35-.17-.51a5.13,5.13,0,0,0-.36,1A.44.44,0,0,0,248.72,272.43Z" transform="translate(-147.77 -208.67)"/><path class="cls-5" d="M257.47,352.7c-.08.23-.16.46-.26.68.26.2.52.4.78.58l.34.23.09.06c.53.35,2.13,1.36,2.67,1.7-.11-.32,0-.53,0-.88C260.29,354.58,258.21,353.27,257.47,352.7Z" transform="translate(-147.77 -208.67)"/><path class="cls-5" d="M256.74,352.2s0-.06,0-.09c-.16-.14-.32-.28-.47-.44-.4-.4-1,0-.64.37s.55.51.83.75c.08-.18.17-.35.23-.53Z" transform="translate(-147.77 -208.67)"/><path class="cls-5" d="M243,367.5a3.78,3.78,0,0,0-4.39.81c-.27.27.26.82.61.58a5.42,5.42,0,0,1,3.3-.67c.28-.23.57-.45.86-.66Z" transform="translate(-147.77 -208.67)"/><path class="cls-5" d="M250,372.28a.42.42,0,0,0-.45.07c-1.26-.36-2.53-.69-3.81-1-.3.22-.61.42-.92.63,1.19.4,2.39.75,3.6,1.1a7,7,0,0,0,1.83-.66Z" transform="translate(-147.77 -208.67)"/><path class="cls-5" d="M256.44,373a13.73,13.73,0,0,0-2.23-.28,18.65,18.65,0,0,0-4.59-3.8,12.12,12.12,0,0,0-2.3,1.24,31.19,31.19,0,0,1,3.64,1.74.46.46,0,0,1,.46.28c.29.18.59.37.88.58-.19,0-.38,0-.57,0l-.42-.09a6.55,6.55,0,0,1-6.25,2.36h0c-.29.14-.12.58.24.67,2.81.65,4-1.57,6.09-1.86a39.19,39.19,0,0,1,4.08,1.49l.13,0a21.59,21.59,0,0,1,3.66,2.56,13,13,0,0,0,1.59-4.08C259.37,373.71,257.84,373.35,256.44,373Z" transform="translate(-147.77 -208.67)"/><path class="cls-5" d="M254.21,352.64c-.29-.35-.89-.1-.66.28l.06.08h0c1.84,2.94,4.58,4.19,7.48,5.85v-.93C258.62,356.35,256.05,354.88,254.21,352.64Z" transform="translate(-147.77 -208.67)"/><path class="cls-5" d="M246.85,369.35l.09-.06.35-.21.46-.25c-.88-.38-3.49-1-4.38-1.27-.41.25-.46.39-.86.66.78.37,2.94,1.19,3.75,1.53Z" transform="translate(-147.77 -208.67)"/><path class="cls-5" d="M247.91,368.74c.26-.13.51-.28.77-.4-.67-.44-1.33-.88-2-1.35-.22.11-.44.22-.66.35C246.66,367.81,247.28,368.29,247.91,368.74Z" transform="translate(-147.77 -208.67)"/><path class="cls-5" d="M244.45,371l-1.3-.37c-.46-.14-.63.5-.17.69l.62.22.17-.08Z" transform="translate(-147.77 -208.67)"/><path class="cls-5" d="M245.57,366.08c-.37-.33-.72-.67-1.06-1s-1,0-.62.36a13.39,13.39,0,0,0,1.09,1c.21-.12.41-.24.63-.35Z" transform="translate(-147.77 -208.67)"/><path class="cls-5" d="M280.65,278.81a.42.42,0,0,0-.83,0v1h.89Q280.68,279.31,280.65,278.81Z" transform="translate(-147.77 -208.67)"/><path class="cls-5" d="M264.08,277a39,39,0,0,1,8.41-.6.47.47,0,0,0,0-.94h-1.76a31.87,31.87,0,0,0-7.1.64l-.32.11-.5.12a13.09,13.09,0,0,1,5.55-3.61.47.47,0,0,0-.25-.91c-2.89.76-8.17,4.73-9.57,7.77l1.93.22A10.54,10.54,0,0,1,264.08,277Z" transform="translate(-147.77 -208.67)"/><path class="cls-5" d="M263.22,269.27a.47.47,0,0,0-.47-.81,14.53,14.53,0,0,0-1.66,1.11v1.6A10.65,10.65,0,0,1,263.22,269.27Z" transform="translate(-147.77 -208.67)"/><path class="cls-4" d="M275.89,250.18c0,.09,0,.18,0,.27" transform="translate(-147.77 -208.67)"/><path class="cls-5" d="M273.36,250.9c0,.11,0,.24,0,.36a5.71,5.71,0,0,1-.21,1c-.16.54.67.75.84.22a5.64,5.64,0,0,0,.24-1.12,4.44,4.44,0,0,0,0-1.21h-.93a2.94,2.94,0,0,1,.09.68Z" transform="translate(-147.77 -208.67)"/><path class="cls-5" d="M277.31,254.3a14.85,14.85,0,0,1-1.28-2,10.73,10.73,0,0,1-.16-1.87.48.48,0,0,1-.45-.19l-.07-.08h-.88a9.23,9.23,0,0,0,.17,1.08,4,4,0,0,0,.5,1.08,16.37,16.37,0,0,0,1.3,4.06c-2.87-1.21-5.73-1.88-7.1,1.9a.46.46,0,0,0,.56.56,15.94,15.94,0,0,1,7.33-.83l.26.49a8.57,8.57,0,0,0-2.13.22,16.8,16.8,0,0,0-9.49,3.18,4.76,4.76,0,0,0-1.34,1.11s0,0-.07.06h0a.34.34,0,0,0-.08.09c-.33.42.36.85.7.53a16.38,16.38,0,0,1,1.56-1.27,15.65,15.65,0,0,1,5.09-1.12l0,0a8.14,8.14,0,0,0-2.62,3.5c-.18.43.47.74.74.43,1-1.12,1.84-2.39,2.8-3.55a8.49,8.49,0,0,1,1.18-.66,11.6,11.6,0,0,0,4.24-1.09,23.77,23.77,0,0,1,3.47-.06c.58,0,.55-.82,0-.89l-.22,0a.41.41,0,0,0,.13-.23c.55.13,1.1.28,1.64.44,4.15,1.2,9.24,3.27,11.91,7,2.32,3.24-.93,6.47-3.1,8.54a65.35,65.35,0,0,0-5.18,5.08h3.83a7.53,7.53,0,0,0,1.34-1.25,2.69,2.69,0,0,0,.29-.16,12.36,12.36,0,0,0-.59,1.41h.91c1.56-3.53,5.54-6.12,8.85-7.11,4.84-1.46,6.88,1.95,8.18,5.86,4-2,5.71-5.24,6.85-10.19l.58-4.33a20.47,20.47,0,0,0-1.72-6.62c.11,2.66-1.91,5.43-4,6.7-2.69,1.64-7.09.9-7-3.18a5.68,5.68,0,0,1,.22-1.32c.4-2.3,1.93-4.82,3.29-5.49a6.15,6.15,0,0,1,3.7-.52,3,3,0,0,1,1.16.05,11.7,11.7,0,0,0-8.28-3.5H299.3a19.88,19.88,0,0,1-5.76,4.33,43.72,43.72,0,0,1-4.38,1.13,41,41,0,0,1-5.92.86,20.15,20.15,0,0,1-4.36-.86c-.51-1.1,1.7-3.18,2.21-3.7s-.21-1-.63-.63a20,20,0,0,0-2.25,2.26,9.76,9.76,0,0,1,.45-3.39h-1.09A9.76,9.76,0,0,0,277.31,254.3Z" transform="translate(-147.77 -208.67)"/><path class="cls-5" d="M258.54,279.58a29.47,29.47,0,0,1,2.55-3.27v-6.74c-2,2.32-2.7,6.81-3.42,9.78C258,279.43,258.24,279.52,258.54,279.58Z" transform="translate(-147.77 -208.67)"/><path class="cls-5" d="M261.09,308.61v1.62A3.37,3.37,0,0,1,263,312c1.24,2.44,0,5.34-1.86,7.24V333.5a12.16,12.16,0,0,0,2,1,18.22,18.22,0,0,1,2.28-4.51,16.42,16.42,0,0,1,10.28-6.58c3.87-.76,8,.26,11.85.63a.43.43,0,0,0,.36-.67c.35,0,.71,0,1.06.08A10.26,10.26,0,0,1,292,325a3,3,0,0,1,.8,2s0,0,0,0v.06l.05,0a12.54,12.54,0,0,0,.49-1.72,3.14,3.14,0,0,0-.6-.84c.23.13.45.29.68.45a12.47,12.47,0,0,0,.19-1.84,6.59,6.59,0,0,0-1.37-1.15l.12,0-.08-.06c-.43-.36,0-1,.46-.73l.89.6V321c-3.6-1.31-8.73,0-12.46-.42-4.51-.46-7.74-3-7.61-8a22.41,22.41,0,0,1,.94-5.65h-7.42A11.54,11.54,0,0,0,261.09,308.61Z" transform="translate(-147.77 -208.67)"/><path class="cls-5" d="M288.69,317.06c-.41.23-.05,1,.43.88a6.52,6.52,0,0,1,4.46.52c0-.39-.08-.77-.14-1.15A4.21,4.21,0,0,0,288.69,317.06Z" transform="translate(-147.77 -208.67)"/><path class="cls-3" d="M292.73,327.38l.06-.16c0-.05,0-.1,0-.14A.42.42,0,0,0,292.73,327.38Z" transform="translate(-147.77 -208.67)"/><path class="cls-7" d="M256.71,217.67c55.19,0,99.94,43.75,99.94,97.72s-44.75,97.72-99.94,97.72-99.94-43.75-99.94-97.72,44.74-97.72,99.94-97.72m0-9a109.39,109.39,0,0,0-77,31.18,105.21,105.21,0,0,0,0,151.08,110.57,110.57,0,0,0,153.92,0,105.21,105.21,0,0,0,0-151.08,109.39,109.39,0,0,0-77-31.18Z" transform="translate(-147.77 -208.67)"/><path class="cls-8" d="M264.24,315.39c0,3.1-3.47,5.3-6.57,5.3s-5.61-1.15-5.61-4.24,3.7-6,6.8-6S264.24,312.29,264.24,315.39Z" transform="translate(-147.77 -208.67)"/><path class="cls-8" d="M314.82,257c.82,3-1.95,6-4.95,6.84s-5.71.37-6.52-2.62,2-6.8,5-7.61S314,254.05,314.82,257Z" transform="translate(-147.77 -208.67)"/><ellipse class="cls-1" cx="168.68" cy="87.29" rx="1.14" ry="1.33"/></svg>